<mxfile host="app.diagrams.net" agent="Mozilla/5.0 (Windows NT 10.0; Win64; x64; rv:134.0) Gecko/20100101 Firefox/134.0" version="26.0.5">
  <diagram name="Seite-1" id="dTdTS0Jpss7GZBtvpQMk">
    <mxGraphModel dx="568" dy="306" grid="1" gridSize="10" guides="1" tooltips="1" connect="1" arrows="1" fold="1" page="1" pageScale="1" pageWidth="750" pageHeight="600" background="#ffffff" math="0" shadow="0">
      <root>
        <mxCell id="0" />
        <mxCell id="1" parent="0" />
        <mxCell id="P2V1AuMaLBbZlVJgVHay-41" value="" style="rounded=0;whiteSpace=wrap;html=1;rotation=90;" parent="1" vertex="1">
          <mxGeometry x="-47.5" y="382.5" width="605" height="240" as="geometry" />
        </mxCell>
        <mxCell id="P2V1AuMaLBbZlVJgVHay-42" value="" style="rounded=0;whiteSpace=wrap;html=1;rotation=90;" parent="1" vertex="1">
          <mxGeometry x="192.5" y="382.5" width="605" height="240" as="geometry" />
        </mxCell>
        <mxCell id="P2V1AuMaLBbZlVJgVHay-2" value="Markler" style="rounded=0;whiteSpace=wrap;html=1;" parent="1" vertex="1">
          <mxGeometry x="135" y="160" width="240" height="40" as="geometry" />
        </mxCell>
        <mxCell id="P2V1AuMaLBbZlVJgVHay-4" value="Programm" style="rounded=0;whiteSpace=wrap;html=1;" parent="1" vertex="1">
          <mxGeometry x="375" y="160" width="240" height="40" as="geometry" />
        </mxCell>
        <mxCell id="P2V1AuMaLBbZlVJgVHay-8" style="edgeStyle=orthogonalEdgeStyle;rounded=0;orthogonalLoop=1;jettySize=auto;html=1;entryX=0.5;entryY=0;entryDx=0;entryDy=0;" parent="1" source="P2V1AuMaLBbZlVJgVHay-6" target="P2V1AuMaLBbZlVJgVHay-7" edge="1">
          <mxGeometry relative="1" as="geometry" />
        </mxCell>
        <mxCell id="P2V1AuMaLBbZlVJgVHay-6" value="" style="ellipse;whiteSpace=wrap;html=1;aspect=fixed;labelBackgroundColor=#000000;fillColor=#000000;" parent="1" vertex="1">
          <mxGeometry x="247.5" y="210" width="15" height="15" as="geometry" />
        </mxCell>
        <mxCell id="P2V1AuMaLBbZlVJgVHay-46" style="edgeStyle=orthogonalEdgeStyle;rounded=0;orthogonalLoop=1;jettySize=auto;html=1;entryX=0.5;entryY=0;entryDx=0;entryDy=0;" parent="1" source="P2V1AuMaLBbZlVJgVHay-7" target="P2V1AuMaLBbZlVJgVHay-20" edge="1">
          <mxGeometry relative="1" as="geometry" />
        </mxCell>
        <mxCell id="P2V1AuMaLBbZlVJgVHay-50" style="edgeStyle=orthogonalEdgeStyle;rounded=0;orthogonalLoop=1;jettySize=auto;html=1;entryX=0;entryY=0.5;entryDx=0;entryDy=0;" parent="1" source="P2V1AuMaLBbZlVJgVHay-7" target="P2V1AuMaLBbZlVJgVHay-10" edge="1">
          <mxGeometry relative="1" as="geometry" />
        </mxCell>
        <mxCell id="P2V1AuMaLBbZlVJgVHay-7" value="&lt;font style=&quot;font-size: 8px;&quot;&gt;Länge und Breite jedes Raumes eingeben&lt;br&gt;&lt;/font&gt;" style="rounded=1;whiteSpace=wrap;html=1;" parent="1" vertex="1">
          <mxGeometry x="216.25" y="240" width="77.5" height="50" as="geometry" />
        </mxCell>
        <mxCell id="P2V1AuMaLBbZlVJgVHay-47" style="edgeStyle=orthogonalEdgeStyle;rounded=0;orthogonalLoop=1;jettySize=auto;html=1;entryX=0;entryY=0.5;entryDx=0;entryDy=0;" parent="1" source="P2V1AuMaLBbZlVJgVHay-10" target="P2V1AuMaLBbZlVJgVHay-30" edge="1">
          <mxGeometry relative="1" as="geometry" />
        </mxCell>
        <mxCell id="P2V1AuMaLBbZlVJgVHay-10" value="Daten Eingeben" style="rounded=0;whiteSpace=wrap;html=1;fontSize=8;" parent="1" vertex="1">
          <mxGeometry x="335" y="250" width="80" height="30" as="geometry" />
        </mxCell>
        <mxCell id="P2V1AuMaLBbZlVJgVHay-16" style="edgeStyle=orthogonalEdgeStyle;rounded=0;orthogonalLoop=1;jettySize=auto;html=1;exitX=1;exitY=0.5;exitDx=0;exitDy=0;entryX=0;entryY=0.5;entryDx=0;entryDy=0;" parent="1" target="P2V1AuMaLBbZlVJgVHay-10" edge="1">
          <mxGeometry relative="1" as="geometry">
            <mxPoint x="335" y="265" as="sourcePoint" />
          </mxGeometry>
        </mxCell>
        <mxCell id="P2V1AuMaLBbZlVJgVHay-51" style="edgeStyle=orthogonalEdgeStyle;rounded=0;orthogonalLoop=1;jettySize=auto;html=1;entryX=1;entryY=0.5;entryDx=0;entryDy=0;" parent="1" source="P2V1AuMaLBbZlVJgVHay-19" target="P2V1AuMaLBbZlVJgVHay-20" edge="1">
          <mxGeometry relative="1" as="geometry" />
        </mxCell>
        <mxCell id="P2V1AuMaLBbZlVJgVHay-19" value="Daten Ausgeben" style="rounded=0;whiteSpace=wrap;html=1;fontSize=8;" parent="1" vertex="1">
          <mxGeometry x="335" y="480" width="80" height="30" as="geometry" />
        </mxCell>
        <mxCell id="P2V1AuMaLBbZlVJgVHay-39" style="edgeStyle=orthogonalEdgeStyle;rounded=0;orthogonalLoop=1;jettySize=auto;html=1;entryX=0.5;entryY=0;entryDx=0;entryDy=0;" parent="1" source="P2V1AuMaLBbZlVJgVHay-20" target="P2V1AuMaLBbZlVJgVHay-38" edge="1">
          <mxGeometry relative="1" as="geometry" />
        </mxCell>
        <mxCell id="P2V1AuMaLBbZlVJgVHay-20" value="" style="rounded=1;whiteSpace=wrap;html=1;fontSize=8;" parent="1" vertex="1">
          <mxGeometry x="222.5" y="480" width="65" height="30" as="geometry" />
        </mxCell>
        <mxCell id="P2V1AuMaLBbZlVJgVHay-24" style="edgeStyle=orthogonalEdgeStyle;rounded=0;orthogonalLoop=1;jettySize=auto;html=1;exitX=0;exitY=0.5;exitDx=0;exitDy=0;entryX=1;entryY=0.5;entryDx=0;entryDy=0;" parent="1" edge="1">
          <mxGeometry relative="1" as="geometry">
            <mxPoint x="297.5" y="495" as="targetPoint" />
          </mxGeometry>
        </mxCell>
        <mxCell id="P2V1AuMaLBbZlVJgVHay-58" style="edgeStyle=orthogonalEdgeStyle;rounded=0;orthogonalLoop=1;jettySize=auto;html=1;entryX=0.5;entryY=0;entryDx=0;entryDy=0;" parent="1" source="P2V1AuMaLBbZlVJgVHay-30" target="aMCM2z8eWkaqqEs2NRPo-4" edge="1">
          <mxGeometry relative="1" as="geometry">
            <mxPoint x="508.7549999999999" y="310" as="targetPoint" />
            <Array as="points" />
          </mxGeometry>
        </mxCell>
        <mxCell id="P2V1AuMaLBbZlVJgVHay-30" value="Alle Raummaße in einer liste speichern" style="rounded=1;whiteSpace=wrap;html=1;fontSize=8;" parent="1" vertex="1">
          <mxGeometry x="472.62" y="245" width="77.5" height="40" as="geometry" />
        </mxCell>
        <mxCell id="P2V1AuMaLBbZlVJgVHay-38" value="" style="ellipse;whiteSpace=wrap;html=1;aspect=fixed;labelBackgroundColor=default;fillColor=none;" parent="1" vertex="1">
          <mxGeometry x="247.5" y="537.5" width="15" height="15" as="geometry" />
        </mxCell>
        <mxCell id="P2V1AuMaLBbZlVJgVHay-40" value="" style="ellipse;whiteSpace=wrap;html=1;aspect=fixed;labelBackgroundColor=#000000;fillColor=#000000;" parent="1" vertex="1">
          <mxGeometry x="250" y="540" width="10" height="10" as="geometry" />
        </mxCell>
        <mxCell id="aMCM2z8eWkaqqEs2NRPo-7" style="edgeStyle=orthogonalEdgeStyle;rounded=0;orthogonalLoop=1;jettySize=auto;html=1;entryX=0.5;entryY=0;entryDx=0;entryDy=0;" edge="1" parent="1" source="aMCM2z8eWkaqqEs2NRPo-4" target="aMCM2z8eWkaqqEs2NRPo-5">
          <mxGeometry relative="1" as="geometry" />
        </mxCell>
        <mxCell id="aMCM2z8eWkaqqEs2NRPo-4" value="&lt;font style=&quot;font-size: 8px;&quot;&gt;Gesamtfläche Berechnen&lt;br&gt;&lt;/font&gt;" style="rounded=1;whiteSpace=wrap;html=1;" vertex="1" parent="1">
          <mxGeometry x="476.87" y="360" width="69" height="40" as="geometry" />
        </mxCell>
        <mxCell id="aMCM2z8eWkaqqEs2NRPo-6" style="edgeStyle=orthogonalEdgeStyle;rounded=0;orthogonalLoop=1;jettySize=auto;html=1;entryX=1;entryY=0.5;entryDx=0;entryDy=0;" edge="1" parent="1" source="aMCM2z8eWkaqqEs2NRPo-5" target="P2V1AuMaLBbZlVJgVHay-19">
          <mxGeometry relative="1" as="geometry">
            <Array as="points">
              <mxPoint x="509" y="495" />
            </Array>
          </mxGeometry>
        </mxCell>
        <mxCell id="aMCM2z8eWkaqqEs2NRPo-5" value="&lt;font style=&quot;line-height: 60%; font-size: 8px;&quot;&gt;Durchschnittliche Raumgröße Berechnen&lt;br&gt;&lt;/font&gt;" style="rounded=1;whiteSpace=wrap;html=1;" vertex="1" parent="1">
          <mxGeometry x="474.75" y="470" width="73.25" height="50" as="geometry" />
        </mxCell>
      </root>
    </mxGraphModel>
  </diagram>
</mxfile>
